<svg height='100px' width='100px'  fill="#000000" xmlns="http://www.w3.org/2000/svg" xmlns:xlink="http://www.w3.org/1999/xlink" version="1.1" x="0px" y="0px" viewBox="0 0 90 90" style="enable-background:new 0 0 90 90;" xml:space="preserve"><path d="M26.484375,10.935547c-3.445313,0-6.248047,2.281738-6.248047,5.086426v51c0,2.803223,2.798828,5.083984,6.201172,5.083496  c0.001953,0,0.004883,0,0.006836,0l43.029297,6.955566c0.013672,0.002441,0.026855,0.003418,0.040039,0.003418  c0.059082,0,0.116699-0.020996,0.162109-0.05957c0.055664-0.047363,0.087891-0.117188,0.087891-0.19043v-51v-6.955566v-9.67334  c0-0.138184-0.111816-0.25-0.25-0.25H26.484375z M26.484375,11.435547h2.258301v9.538025l-2.258301-0.364685  c-3.169434,0-5.748047-2.057617-5.748047-4.586914C20.736328,13.493164,23.314941,11.435547,26.484375,11.435547z   M26.484375,71.608887c-3.169434,0-5.748047-2.057617-5.748047-4.586914V18.01709  c0.952148,1.814453,3.157715,3.088867,5.701172,3.088379c0.001953,0,0.004883,0,0.006836,0l2.29834,0.371521v50.381897  c0,0.048096,0.027466,0.084961,0.050964,0.123108L26.484375,71.608887z M69.263672,78.520996l-40.106384-6.480225  c0.050842-0.045715,0.085388-0.108032,0.085388-0.181885V21.5578l40.020996,6.469543V78.520996z M69.263672,27.520996  l-39.68457-6.412109h39.68457V27.520996z M69.263672,20.608887H29.242676v-3.106934h35.905273c0.138184,0,0.25-0.111816,0.25-0.25  s-0.111816-0.25-0.25-0.25H29.242676v-2.527832h35.905273c0.138184,0,0.25-0.111816,0.25-0.25s-0.111816-0.25-0.25-0.25H29.242676  v-2.538574h40.020996V20.608887z"></path></svg>